<?xml version="1.0" encoding="UTF-8" standalone="no"?>
<!-- Created with Inkscape (http://www.inkscape.org/) -->

<svg
   xmlns:dc="http://purl.org/dc/elements/1.1/"
   xmlns:cc="http://creativecommons.org/ns#"
   xmlns:rdf="http://www.w3.org/1999/02/22-rdf-syntax-ns#"
   xmlns:svg="http://www.w3.org/2000/svg"
   xmlns="http://www.w3.org/2000/svg"
   xmlns:xlink="http://www.w3.org/1999/xlink"
   xmlns:sodipodi="http://sodipodi.sourceforge.net/DTD/sodipodi-0.dtd"
   xmlns:inkscape="http://www.inkscape.org/namespaces/inkscape"
   id="svg10177"
   version="1.1"
   inkscape:version="0.91 r13725"
   xml:space="preserve"
   width="141.73228"
   height="141.73228"
   viewBox="0 0 141.73228 141.73228"
   sodipodi:docname="hackpompey-sticker--3.svg"><metadata
     id="metadata10183"><rdf:RDF><cc:Work
         rdf:about=""><dc:format>image/svg+xml</dc:format><dc:type
           rdf:resource="http://purl.org/dc/dcmitype/StillImage" /><dc:title></dc:title></cc:Work></rdf:RDF></metadata><defs
     id="defs10181"><linearGradient
       gradientTransform="matrix(0.80001291,0,0,0.80001285,0.0011438,-4.5682477e-4)"
       inkscape:collect="always"
       xlink:href="#linearGradient9890"
       id="linearGradient9960"
       gradientUnits="userSpaceOnUse"
       x1="70.56472"
       y1="142.03227"
       x2="70.56472"
       y2="-0.5997076" /><linearGradient
       inkscape:collect="always"
       id="linearGradient9890"><stop
         style="stop-color:#ff5555;stop-opacity:1"
         offset="0"
         id="stop9892" /><stop
         style="stop-color:#66a3a3;stop-opacity:1"
         offset="1"
         id="stop9894" /></linearGradient></defs><sodipodi:namedview
     pagecolor="#ffffff"
     bordercolor="#666666"
     borderopacity="1"
     objecttolerance="10"
     gridtolerance="10"
     guidetolerance="10"
     inkscape:pageopacity="0"
     inkscape:pageshadow="2"
     inkscape:window-width="1355"
     inkscape:window-height="695"
     id="namedview10179"
     showgrid="false"
     fit-margin-top="0"
     fit-margin-left="0"
     fit-margin-right="0"
     fit-margin-bottom="0"
     inkscape:zoom="2.6641777"
     inkscape:cx="74.993036"
     inkscape:cy="72.379466"
     inkscape:window-x="0"
     inkscape:window-y="27"
     inkscape:window-maximized="0"
     inkscape:current-layer="g10185" /><g
     id="g10185"
     inkscape:groupmode="layer"
     inkscape:label="hackpompey-sticker--pink"
     transform="matrix(1.25,0,0,-1.25,-0.00142975,141.73371)"><path
       inkscape:connector-curvature="0"
       id="path9280"
       style="fill:url(#linearGradient9960);fill-opacity:1;fill-rule:nonzero;stroke:none"
       d="m 0.0011438,113.38697 113.3858262,0 0,-113.3858268 -113.3858262,0 0,113.3858268 z" /><path
       inkscape:connector-curvature="0"
       id="path10191"
       style="fill:#fdf5f6;fill-opacity:1;fill-rule:nonzero;stroke:none"
       d="m 28.266285,48.809013 c -0.0096,-2.034433 -0.790413,-3.756861 -2.344038,-5.175283 -1.468824,-1.331222 -3.431255,-2.259237 -5.890495,-2.778445 l -0.934415,-7.072114 c -0.0096,-0.0496 -0.0184,-0.100001 -0.028,-0.152802 -0.128002,-0.59681 -0.465607,-0.896815 -1.009616,-0.896815 -0.206403,0 -0.384006,0.0528 -0.540809,0.156003 -0.340005,0.222404 -0.508808,0.584809 -0.508808,1.088017 0,0.0592 0.774413,5.936896 2.328038,17.634684 0.0184,0.146402 0.0624,0.287204 0.128002,0.421606 0.216003,0.403207 0.547209,0.60321 1.000016,0.60321 0.784013,0.143202 1.628026,0.218404 2.521641,0.218404 0.931215,0 1.765628,-0.115202 2.50004,-0.346406 1.85043,-0.588009 2.778445,-1.822429 2.778445,-3.700059 m -1.921631,-0.116002 c 0,0.0408 0,0.0872 0,0.140802 -0.0752,1.400023 -1.178419,2.100034 -3.303253,2.100034 -0.58161,0 -1.172019,-0.044 -1.768829,-0.128002 -0.0504,-0.488008 -0.372006,-3.034449 -0.959215,-7.647323 1.193619,0.181603 2.321637,0.593609 3.380854,1.24402 1.765629,1.084017 2.650443,2.51204 2.650443,4.290469" /><path
       inkscape:connector-curvature="0"
       id="path10193"
       style="fill:#fdf5f6;fill-opacity:1;fill-rule:nonzero;stroke:none"
       d="m 35.453601,52.740276 c -1.477624,0 -2.884047,-0.747212 -4.215268,-2.231236 -1.290421,-1.434423 -2.247236,-3.244052 -2.872046,-5.437687 -0.400007,-1.419223 -0.60001,-2.824846 -0.60001,-4.216068 0,-2.296837 0.481608,-4.212068 1.437623,-5.740892 0.862414,-1.374422 1.949631,-2.149635 3.265653,-2.336838 0.187203,-0.0288 0.372006,-0.0408 0.562409,-0.0408 1.528024,0 2.956048,0.734412 4.290469,2.203236 1.312821,1.452823 2.272037,3.303253 2.868846,5.565689 0.247204,0.915215 0.409607,1.84083 0.488008,2.780845 0.546409,0.103202 1.037617,0.222404 1.472024,0.362406 -0.772012,-5.834494 -1.268821,-9.605755 -1.268821,-9.674556 0,-0.503208 0.168003,-0.862413 0.508809,-1.084817 0.153602,-0.103202 0.334405,-0.152803 0.540808,-0.152803 0.58721,0 0.931215,0.331206 1.024817,0.996816 0.0064,0.0248 0.016,0.044 0.016,0.0528 0.509608,3.244052 1.015217,6.81931 1.509625,10.728173 l 2.208835,-10.871375 c 0.188003,-0.522408 0.462408,-0.812813 0.822414,-0.881614 0.0744,-0.0184 0.156002,-0.0248 0.243203,-0.0248 0.425607,0.0096 0.768813,0.249604 1.025617,0.737612 0.0312,0.0592 0.174403,0.359206 0.424807,0.887215 1.159219,2.478439 2.759244,5.852894 4.790477,10.131362 -0.803213,-6.86251 -1.206419,-10.372166 -1.206419,-10.518569 0,-0.503208 0.175203,-0.862413 0.516008,-1.084817 0.152802,-0.103202 0.324805,-0.152803 0.531209,-0.152803 0.590409,0 0.931215,0.331206 1.024816,0.996816 0.0096,0.0248 0.016,0.044 0.016,0.0528 0.205604,1.25362 0.931215,6.888111 2.187236,16.903472 0.0344,0.324805 0.072,0.61281 0.106401,0.859214 -0.0344,0.391206 -0.221603,0.684811 -0.562409,0.872014 -0.144002,0.088 -0.300005,0.131202 -0.462407,0.131202 -0.368806,0 -0.672011,-0.162403 -0.919215,-0.480808 -0.0592,-0.0936 -0.112002,-0.178403 -0.144002,-0.265604 L 48.157006,37.112025 c -0.187203,0.974415 -0.61521,3.13125 -1.280821,6.471304 -0.931215,4.609674 -1.478424,7.396919 -1.650426,8.353734 -0.0496,0.280804 -0.262405,0.465607 -0.628011,0.568809 -0.103201,0.0248 -0.203203,0.0464 -0.296804,0.0464 -0.409607,0 -0.721612,-0.174403 -0.934415,-0.518409 -0.0784,-0.128002 -0.124802,-0.272004 -0.152803,-0.424806 -0.0256,-0.188003 -0.200003,-1.456824 -0.516008,-3.812862 -0.0872,-0.66561 -0.115202,-0.884014 -0.196803,-1.503224 -0.168803,-0.0656 -0.344006,-0.149602 -0.540809,-0.244004 -0.546409,-0.256004 -0.962416,-0.428007 -1.24322,-0.531208 -0.137602,2.212835 -0.716012,3.984864 -1.740828,5.325685 -0.962416,1.25282 -2.140835,1.890431 -3.522457,1.896831 z m 0.394406,-2.406439 c 1.152819,-0.0784 1.968832,-1.128018 2.43684,-3.153651 0.153602,-0.63121 0.253604,-1.308821 0.303204,-2.033632 -0.705611,0.0184 -1.452823,0.259204 -2.240036,0.728012 -1.022416,0.62481 -1.616026,1.396822 -1.768828,2.318437 -0.0256,0.153602 -0.0376,0.293604 -0.0376,0.431207 0,0.778412 0.237604,1.300021 0.706412,1.565625 0.177602,0.0936 0.377606,0.144002 0.600009,0.144002 z m -3.75046,-2.072033 c 0.587209,-1.812829 1.578425,-3.181651 2.959247,-4.103266 1.044017,-0.690411 2.200036,-1.046417 3.472057,-1.062417 -0.231204,-1.85283 -0.815214,-3.593658 -1.746429,-5.224884 -0.819213,-1.459223 -1.691227,-2.406439 -2.619242,-2.831246 -0.315205,-0.147202 -0.62161,-0.222403 -0.912815,-0.222403 -1.162418,0 -2.043233,0.778412 -2.643242,2.325637 -0.444007,1.152819 -0.659211,2.50004 -0.659211,4.056065 0.0344,2.612842 0.749612,4.96888 2.149635,7.062514 z" /><path
       inkscape:connector-curvature="0"
       id="path10195"
       style="fill:#fdf5f6;fill-opacity:1;fill-rule:nonzero;stroke:none"
       d="M 68.091728,48.809013 C 68.082928,46.77458 67.301315,45.052152 65.74849,43.63373 64.279666,42.302508 62.314034,41.374493 59.857195,40.855285 L 58.91958,33.783171 c -0.0056,-0.0496 -0.0152,-0.100001 -0.0248,-0.152802 -0.128002,-0.59681 -0.465607,-0.896815 -1.012016,-0.896815 -0.203203,0 -0.384806,0.0528 -0.537609,0.156003 -0.340805,0.222404 -0.512808,0.584809 -0.512808,1.088017 0,0.0592 0.778412,5.936896 2.331238,17.634684 0.0192,0.146402 0.0592,0.287204 0.128002,0.421606 0.216003,0.403207 0.547208,0.60321 1.000016,0.60321 0.784812,0.143202 1.625626,0.218404 2.52244,0.218404 0.931215,0 1.762429,-0.115202 2.496841,-0.346406 1.85283,-0.588009 2.780845,-1.822429 2.780845,-3.700059 m -1.921631,-0.116002 0,0.140802 c -0.0784,1.400023 -1.178419,2.100034 -3.303254,2.100034 -0.581609,0 -1.172019,-0.044 -1.768828,-0.128002 -0.0496,-0.488008 -0.372006,-3.034449 -0.959216,-7.647323 1.19362,0.181603 2.321638,0.593609 3.380855,1.24402 1.765628,1.084017 2.650443,2.51204 2.650443,4.290469" /><path
       inkscape:connector-curvature="0"
       id="path10197"
       style="fill:#fdf5f6;fill-opacity:1;fill-rule:nonzero;stroke:none"
       d="m 70.73257,52.35227 c 0,0 2.737644,0 8.209733,0 0.168802,0 0.328005,-0.0216 0.472007,-0.0656 0.471208,-0.152803 0.705612,-0.477608 0.705612,-0.972016 0,-0.136802 -0.0312,-0.265604 -0.0904,-0.384006 -0.168802,-0.368806 -0.512008,-0.59041 -1.024816,-0.665611 l -7.375319,0 -0.896815,-7.006513 5.316086,0 c 0.202403,0 0.396806,-0.0376 0.574409,-0.115201 0.419207,-0.188003 0.62801,-0.509609 0.62801,-0.960016 0,-0.121602 -0.0216,-0.236804 -0.0656,-0.346405 -0.152802,-0.375206 -0.502408,-0.60641 -1.049617,-0.690411 l -5.659291,0 -0.847214,-6.532105 7.288118,0 c 0.196803,0 0.380806,-0.0312 0.552809,-0.0904 0.444007,-0.177603 0.665611,-0.503208 0.665611,-0.975215 0,-0.100002 -0.0184,-0.208804 -0.0528,-0.318406 -0.134402,-0.400006 -0.484808,-0.64401 -1.050417,-0.731211 l -8.540938,0 c -0.215203,0 -0.408807,0.056 -0.590409,0.168802 -0.340806,0.228004 -0.512809,0.58721 -0.512809,1.075218 0,0.118402 0.775213,5.996896 2.319238,17.634683 0.0184,0.128002 0.0496,0.246404 0.103201,0.359206 0.177603,0.409606 0.487208,0.61521 0.921615,0.61521" /><path
       inkscape:connector-curvature="0"
       id="path10199"
       style="fill:#fdf5f6;fill-opacity:1;fill-rule:nonzero;stroke:none"
       d="m 92.836127,52.286669 c 0.162403,0 0.321605,-0.0376 0.475208,-0.115202 0.340005,-0.188003 0.524808,-0.481608 0.549608,-0.884815 -1.409622,-11.124978 -2.196835,-17.131475 -2.331237,-18.031489 -0.246404,-1.662427 -1.177619,-3.280853 -1.780829,-3.852862 -1.716028,-1.622426 -4.631275,-1.756028 -7.063314,-1.756028 -0.787213,0 -16.809071,1.562425 -29.466075,1.736828 -12.653005,0.175202 -34.584559,-2.128035 -34.934964,-1.649627 -0.428007,0.0808 -0.59681,0.484008 -0.59681,0.662411 0,0.181603 0.128802,0.372006 0.222404,0.534408 0.387206,0.316005 1.490424,0.309605 2.206435,0.312805 0.762413,-0.0784 16.71867,1.528025 32.302922,1.565626 15.057043,0.0344 29.75408,-1.500025 30.572493,-1.503225 1.325621,0.0088 3.588058,0.084 4.578474,1.20002 0.63121,0.712011 1.84723,2.072033 2.024833,4.34967 -0.331206,-0.512009 -0.756013,-0.956016 -1.265621,-1.331222 -0.931215,-0.665611 -1.959231,-0.996816 -3.08725,-0.996816 -0.188003,0 -0.381606,0.0128 -0.578409,0.0376 -1.312021,0.187203 -2.403239,0.968815 -3.265653,2.344037 -0.956015,1.528025 -1.434423,3.440056 -1.434423,5.737693 0,1.040016 0.0472,2.115234 0.140802,3.228051 0.162403,1.740028 0.552809,4.212068 1.165619,7.412119 0.0184,0.103202 0.0472,0.203204 0.0904,0.296805 0.178403,0.468808 0.488008,0.703212 0.922415,0.703212 0.171202,0 0.336805,-0.0464 0.500008,-0.140003 0.340005,-0.197603 0.512008,-0.468807 0.512008,-0.819213 0,-0.531208 -0.159203,-1.840829 -0.475208,-3.931263 -0.452807,-3.075249 -0.677611,-5.078482 -0.677611,-6.006497 0,-1.91203 0.256004,-3.472055 0.768813,-4.675275 0.590409,-1.400022 1.437623,-2.100033 2.549641,-2.100033 0.109602,0 0.224804,0.0128 0.344005,0.0376 0.837614,0.172003 1.696828,0.856814 2.575242,2.062433 1.005616,1.381623 1.715228,2.965648 2.124834,4.750477 l 1.306421,9.821757 c 0.0184,0.156803 0.0592,0.300005 0.128002,0.437607 0.187203,0.375207 0.487208,0.56241 0.896815,0.56241" /><path
       inkscape:connector-curvature="0"
       id="path10201"
       style="fill:#fdf5f6;fill-opacity:1;fill-rule:nonzero;stroke:none"
       d="M 29.159899,64.383663 27.616674,60.4588 c -0.216003,-0.60001 -0.409606,-1.22482 -0.581609,-1.86883 -0.168803,-0.643211 -0.352806,-1.20002 -0.547209,-1.672027 -0.190403,-0.493608 -0.493608,-0.880814 -0.900014,-1.159219 -0.387207,-0.278404 -0.824814,-0.480807 -1.318422,-0.61201 -0.493608,-0.150402 -1.009616,-0.212803 -1.547225,-0.191203 -0.515208,0.0192 -0.974415,0.116002 -1.384022,0.288005 -0.921615,0.431207 -1.24402,1.136818 -0.965615,2.124834 0.987215,4.33447 1.91203,7.809726 2.768844,10.428168 0.880814,2.618442 1.600026,4.678475 2.156035,6.181699 0.581609,1.500024 1.181619,3.09045 1.803229,4.762476 0.0656,0.62161 0.321605,1.180819 0.772013,1.674427 0.449607,0.494408 0.977615,0.900015 1.577625,1.22242 0.62241,0.321605 1.26642,0.546409 1.932031,0.675211 0.665611,0.149602 1.25602,0.171203 1.768829,0.0656 0.515208,-0.106402 0.890414,-0.344006 1.128018,-0.709612 0.256004,-0.362405 0.277604,-0.890414 0.0656,-1.575225 -0.775213,-1.975232 -1.322421,-3.368854 -1.644027,-4.184067 -0.321605,-0.816013 -0.609609,-1.547225 -0.868814,-2.191235 l -0.900014,-2.121634 c 0.450407,-0.0216 1.019216,0.0408 1.706427,0.190403 1.244021,0.281604 2.144035,0.378406 2.703244,0.291204 0,0.105602 0.0528,0.290405 0.159203,0.546409 0.603209,2.619242 1.27842,5.022481 2.028032,7.209716 0.537609,1.803229 1.921631,2.746444 4.153667,2.834446 0.877615,0 1.543225,-0.216004 1.993633,-0.644011 0.493608,-0.452807 0.559209,-1.062417 0.193603,-1.834429 -1.972031,-5.537688 -3.368854,-9.903358 -4.184867,-13.10021 -0.921615,-3.690459 -1.533625,-6.180899 -1.834429,-7.46892 -0.277605,-1.28722 -0.524809,-2.049633 -0.740012,-2.284036 -0.212804,-0.237604 -0.437607,-0.396807 -0.675211,-0.484808 -0.216004,-0.105602 -0.428007,-0.203203 -0.644011,-0.287205 -0.215203,-0.0872 -0.387206,-0.303205 -0.515208,-0.64401 l -0.0968,0 c -0.172002,-0.387206 -0.547208,-0.687211 -1.125618,-0.903215 -0.580809,-0.212003 -1.168819,-0.287204 -1.771228,-0.224803 -0.57841,0.044 -1.072018,0.259204 -1.478424,0.64401 -0.387206,0.365606 -0.484808,0.934415 -0.290405,1.706428 0.215204,1.221619 0.568809,2.53124 1.062417,3.928063 0.493608,1.415222 0.877614,2.51844 1.159219,3.312053 0.300005,0.796813 0.547209,1.534424 0.737612,2.222436 -0.168803,-0.0848 -0.340806,-0.150403 -0.512808,-0.193604 -0.149603,-0.0408 -0.343206,-0.128802 -0.58081,-0.256804 -0.234404,-0.106401 -0.481607,-0.203203 -0.740812,-0.290404 -0.234403,-0.0848 -0.472007,-0.172003 -0.706411,-0.256004 -0.60321,-0.237604 -1.093618,-0.472008 -1.481624,-0.709612 l -0.290405,-0.516008" /><path
       inkscape:connector-curvature="0"
       id="path10209"
       style="fill:#fdf5f6;fill-opacity:1;fill-rule:nonzero;stroke:none"
       d="m 71.93259,73.755813 c -0.0528,0.640811 -0.306405,0.944016 -0.756013,0.906415 -0.168802,-0.0152 -0.368806,-0.0752 -0.596809,-0.181603 C 70.351764,74.378223 70.132561,74.283822 69.922957,74.199821 69.170145,73.706213 68.588536,73.183804 68.182929,72.630995 67.798123,72.102987 67.407717,71.512577 67.01091,70.852567 66.614104,70.193356 66.285298,69.499745 66.022894,68.765333 65.76049,68.034121 65.573287,67.34931 65.454085,66.7149 c -0.428007,-2.340037 -0.0624,-3.859262 1.097618,-4.559273 0.474407,-0.280804 0.959215,-0.403206 1.449623,-0.359206 0.512808,0.0624 0.909615,0.206404 1.193619,0.421607 0.303205,0.222404 0.59681,0.428807 0.881615,0.62561 0.287204,0.196803 0.61841,0.343206 0.996816,0.440007 0.400006,0.119202 0.896814,0.106402 1.490424,-0.0368 0.61281,-0.119202 0.953615,-0.328806 1.021616,-0.62561 0.0688,-0.293605 0.0944,-0.60321 0.0784,-0.928015 -0.0152,-0.324806 0,-0.61521 0.0408,-0.868814 0.0656,-0.252804 0.312805,-0.393607 0.746412,-0.421607 0.450407,-0.478408 0.244004,-1.122418 -0.61201,-1.924831 -0.219203,-0.212803 -0.428007,-0.412807 -0.62801,-0.60321 -1.737628,-1.331221 -3.640859,-2.150434 -5.703292,-2.453639 -1.296821,-0.193603 -2.706444,-0.0776 -4.228068,0.353606 -2.275237,0.64641 -3.672059,2.415238 -4.196868,5.300085 -0.591209,2.662442 -0.484808,5.480888 0.318405,8.456136 0.672011,2.51284 1.80643,4.878478 3.403255,7.103314 1.444024,2.040832 2.921647,3.412854 4.434472,4.121666 1.778429,1.119218 3.75606,1.665627 5.934496,1.634426 2.312037,-0.106402 3.890462,-0.952815 4.737676,-2.540841 0.843214,-1.584025 0.893614,-3.574457 0.146402,-5.962496 -0.249604,-0.840013 -0.806413,-1.531224 -1.665626,-2.077633 -0.731212,-0.494408 -1.546425,-0.778412 -2.44644,-0.853614 -0.896814,-0.0776 -1.496824,0.153603 -1.800029,0.688011 -0.306405,0.556009 -0.378406,1.259221 -0.212803,2.112034" /><path
       inkscape:connector-curvature="0"
       id="path10217"
       style="fill:#fdf5f6;fill-opacity:1;fill-rule:nonzero;stroke:none"
       d="m 56.725944,79.952713 c 0.756812,-0.328005 1.262421,-0.859214 1.512825,-1.593626 -0.240804,-2.431239 -0.440808,-4.844077 -0.60001,-7.246516 -0.159203,-2.378438 -0.337606,-4.384871 -0.531209,-6.012897 -0.200003,-1.609626 -0.331205,-2.812845 -0.396806,-3.616058 -0.0472,-0.800013 -0.112802,-1.600025 -0.203203,-2.403238 l -0.137603,-0.690411 c -0.0248,-0.237604 -0.0528,-0.456008 -0.0816,-0.649611 -0.0248,-0.219203 -0.0496,-0.447207 -0.0744,-0.684811 -0.547209,-0.731212 -1.331222,-1.137618 -2.360038,-1.218419 -1.090418,-0.0848 -1.977632,0.128002 -2.662443,0.63441 -0.408807,0.268804 -0.521609,0.893614 -0.340806,1.87763 0.0784,0.394406 0.103202,0.891214 0.0784,1.491224 -0.0064,0.62481 0,1.140018 0.0064,1.549625 l -0.0032,0.0656 c -0.62481,-0.287205 -1.178419,-0.640811 -1.662427,-1.065617 -0.484808,-0.403207 -0.787213,-0.665611 -0.906415,-0.780813 -0.121602,-0.0968 -0.287204,-0.184803 -0.496808,-0.265604 -0.209603,-0.06 -0.400006,-0.106402 -0.568809,-0.140802 -0.406407,-0.0536 -0.678411,-0.137603 -0.818413,-0.256005 -1.068817,-2.322437 -2.084834,-3.650458 -3.050449,-3.984864 -0.60641,-0.240803 -1.22162,-0.331205 -1.84963,-0.272004 -0.62801,0.0376 -1.147219,0.362406 -1.562425,0.978416 -0.734412,0.587209 -0.700012,2.356038 0.105601,5.300085 0.437607,1.562425 1.088018,3.444055 1.950432,5.640891 0.880814,2.221635 1.744028,4.159266 2.580841,5.818493 1.81283,3.562457 3.865663,6.606506 6.1689,9.131347 0.391206,0.203203 0.816013,0.428007 1.26882,0.681611 0.453608,0.272004 0.903215,0.434407 1.350422,0.490408 0.468808,0.0592 0.956016,0.044 1.456024,-0.0472 0.503208,-0.0904 0.934415,-0.249604 1.296821,-0.480808 0.837613,-0.537609 1.016016,-1.288021 0.531208,-2.250436 m -6.2121,-8.974544 C 50.163438,69.658948 49.807433,68.437328 49.441827,67.31251 49.076221,66.206092 48.766616,65.237277 48.507412,64.396463 l 2.52804,0.293605 c 0.0656,1.384822 0.149603,2.756844 0.259205,4.122466 0.109601,1.362422 0.209603,2.728044 0.296804,4.090466 l -1.077617,-1.924831" /><path
       inkscape:connector-curvature="0"
       id="path10237"
       style="fill:#fdf5f6;fill-opacity:1;fill-rule:nonzero;stroke:none"
       d="m 81.551945,80.180717 c 0.380806,1.000016 0.952815,1.368822 1.708827,1.109617 0.203204,0.478408 0.378407,0.781613 0.524809,0.916015 0.168803,0.131202 0.337605,0.234404 0.506408,0.303205 0.168803,0.0872 0.350406,0.177603 0.540809,0.271204 0.190403,0.0912 0.487208,0.172003 0.893614,0.247204 0.406407,0.0752 0.856814,0.119202 1.350422,0.131202 0.493608,0.0344 0.987216,0.028 1.480824,-0.0248 0.516008,-0.0504 0.950415,-0.178403 1.296821,-0.384806 0.850414,-0.471208 1.053617,-1.25922 0.60961,-2.365638 0.044,0.0224 0.0344,0 -0.028,-0.0656 L 90.160884,79.76231 89.94248,79.468705 c -0.106401,-0.109602 -0.419207,-0.775212 -0.947215,-1.990432 -0.428007,-0.868814 -0.865614,-1.728828 -1.315221,-2.578441 -0.734412,-1.456024 -1.184819,-2.390439 -1.344022,-2.803245 0.740812,0.428007 1.593626,1.040816 2.559241,1.837629 1.82803,1.487224 2.996849,2.375238 3.503257,2.668843 0.509608,0.290405 0.859214,0.472008 1.050417,0.540809 0.212003,0.0712 0.415207,0.0872 0.60881,0.0496 0.193603,-0.0152 0.400006,-0.0656 0.61601,-0.144003 L 95.48577,76.74706 c 0.519208,-0.156802 0.816013,-0.772012 0.888014,-1.844029 0.0464,-1.050417 -0.147202,-1.85043 -0.581609,-2.396839 -1.887231,-2.584841 -4.040066,-4.334469 -6.465705,-5.256884 -0.740812,-0.300005 -1.508824,-0.556009 -2.296837,-0.768812 1.140819,-0.100002 2.244036,-0.821614 3.309654,-2.168035 0.865614,-1.094418 1.496824,-2.225636 1.89043,-3.394455 0.419207,-1.171219 0.740812,-2.043233 0.972016,-2.615242 0.228004,-0.553609 0.324805,-0.978416 0.290405,-1.28162 -0.012,-0.321606 -0.190404,-0.562409 -0.528009,-0.721612 -0.318405,-0.178403 -0.872014,-0.356006 -1.662427,-0.524808 -0.362406,-0.0752 -1.124818,0.334405 -2.284037,1.228019 -0.506408,0.393607 -1.040816,0.818413 -1.612826,1.277621 -0.568809,0.478407 -1.140818,0.925615 -1.709627,1.337621 -1.312021,0.975216 -2.228036,1.478424 -2.743245,1.506424 -0.044,0 -0.128802,0.0192 -0.260004,0.0592 l -0.540008,-1.462423 c -0.281605,-0.718412 -0.57201,-1.474424 -0.875215,-2.277637 -0.278404,-0.781612 -0.62561,-1.488024 -1.037616,-2.119234 -0.653611,-0.468807 -1.421623,-0.67201 -2.303238,-0.609609 -1.012816,0.0816 -1.687227,0.472007 -2.028032,1.172018 -0.231204,0.660011 0.072,2.619242 0.909614,5.881695 0.562409,2.290437 1.046417,4.300069 1.452824,6.028097 0.406406,1.728027 0.752812,3.15285 1.047217,4.278468 0.290404,1.143219 0.502408,2.031233 0.63681,2.656043 0.134402,0.64721 0.268804,1.275221 0.403207,1.87843 0.328005,1.403223 0.725611,2.593642 1.194419,3.571258" /></g></svg>