<svg xmlns="http://www.w3.org/2000/svg" xmlns:xlink="http://www.w3.org/1999/xlink" viewBox="0 0 700.77 700.64"><defs><style>.a,.e{fill:none;}.b{clip-path:url(#a);}.c,.f{fill:#ffd800;}.d{fill:#231f20;}.e{stroke:#ffd800;stroke-miterlimit:10;stroke-width:3px;}.f{fill-rule:evenodd;}</style><clipPath id="a" transform="translate(-11.61 -11.6)"><rect class="a" width="723.99" height="723.84"/></clipPath></defs><title>makers-guild</title><g class="b"><g class="b"><path class="c" d="M671.45,364.08l40.93-19.91-2.23-24.5-43.71-12c-1.53-7.93-3.2-15.87-5.29-23.39L696,254.11,687.46,231l-45.94-.14c-3.34-7-7-14.06-10.86-20.88l26.17-38.7-14.2-20-45.39,11.83c-5-5.71-10.16-11.27-15.45-16.57l15.73-45L578.6,85.8l-41.49,23.8c-6.12-4-12.11-7.94-18.37-11.55l3.48-48.44-22.27-10.3L465.42,73.55c-6.68-2.23-13.22-4.46-20-6.12L435.91,19l-24.22-4L386.77,57.68c-6.68-.56-13.22-.7-20-.7l-22-45.38-24.5,2.23L307,62.28c-6.4,1.25-12.67,2.64-18.93,4.18L254.66,27.89l-23.11,8.49-.14,51C225.71,90.12,220.14,93,214.57,96l-43-29-20,14.2L164.59,131c-4.59,4-9.19,8.08-13.5,12.53l-49.28-17L86.08,145.52l25.62,44.82c-3.48,5-6.68,10.16-9.75,15.31L49.75,202l-10.3,22.27,36.33,36.75c-2.09,5.71-3.9,11.56-5.71,17.54L19,288.35l-4,24.36,44.27,25.75c-.56,6.12-.7,12.39-1,18.37L11.61,379.53,13.83,404l49,13.5c1.11,6.27,2.36,12.53,3.9,18.66L28,469.74l8.49,23.11,50.12.14c2.78,5.85,5.71,11.83,8.91,17.54l-28.4,41.9,14.2,20,47.75-12.53c4.46,5.15,8.91,10.3,13.64,15.31l-16.29,47.05L145.39,638l42.18-24.22c5.71,4,11.83,7.93,17.68,11.55l-3.48,48.72L224,684.4l33.69-33.55c7,2.65,14.06,5,21,7l9,47.05,24.22,4,23.66-40.37c7.52.7,15.31,1.12,23.11,1.25l20.46,42.46,24.5-2.23,12-44.27c7.93-1.25,15.73-2.92,23.25-4.73l30.21,35.08,23.11-8.49.14-45.24a229,229,0,0,0,21.72-11.13L552,656.83l20-14.19-11.41-43.3c6.27-5.29,12.39-10.86,18.24-16.56l42.73,14.75,15.73-18.93-22.13-38.7c4.73-6.82,9.19-13.78,13.5-20.88l45,3.34L684,500.08l-31.32-31.74q4.17-11.69,7.52-23.8l44.4-8.49,4-24.36L669.92,389a186.92,186.92,0,0,0,1.53-24.92M643,337.62c14.57,153.84-98.78,289.86-252.61,303.9S100.5,542.74,86.47,388.9,185.24,99,339.08,85C491.84,71,628.4,183.79,643,337.62" transform="translate(-11.61 -11.6)"/></g><path class="c" d="M125.16,355.6H113.73v4.58h10.49v3.75H113.73v5.55h12v3.88H109.32V351.78h15.83Z" transform="translate(-11.61 -11.6)"/><path class="c" d="M132.45,366.71a4.38,4.38,0,0,0,.82,2.21q1.12,1.33,3.84,1.33a8.27,8.27,0,0,0,2.65-.35,2.51,2.51,0,0,0,1.93-2.5,1.85,1.85,0,0,0-.94-1.66,10.26,10.26,0,0,0-3-1l-2.34-.51a14.56,14.56,0,0,1-4.74-1.66,5.26,5.26,0,0,1-2.18-4.67,6.2,6.2,0,0,1,2.14-4.82q2.14-1.92,6.27-1.92A9.62,9.62,0,0,1,142.8,353a6.43,6.43,0,0,1,2.56,5.25H141a3.09,3.09,0,0,0-1.74-2.77,6,6,0,0,0-2.69-.54,5.12,5.12,0,0,0-2.85.7,2.23,2.23,0,0,0-1.07,2,1.85,1.85,0,0,0,1.05,1.73,13.06,13.06,0,0,0,2.87.89l3.79.89a9.64,9.64,0,0,1,3.73,1.57,5.28,5.28,0,0,1,1.93,4.41,6.19,6.19,0,0,1-2.29,4.91,9.65,9.65,0,0,1-6.46,2,10.56,10.56,0,0,1-6.71-1.93,6.37,6.37,0,0,1-2.44-5.29Z" transform="translate(-11.61 -11.6)"/><path class="c" d="M164.9,351.78v3.82h-6.46v17.77H153.9V355.6h-6.49v-3.82Z" transform="translate(-11.61 -11.6)"/><path class="c" d="M559.33,369.2q.89-2.12,4.22-4.5a30.94,30.94,0,0,0,3.74-3,4.37,4.37,0,0,0,1.3-3,3.38,3.38,0,0,0-.75-2.24,3,3,0,0,0-4.73.53,7,7,0,0,0-.47,2.61h-4.06a10.25,10.25,0,0,1,1-4.38q1.67-3.18,5.94-3.18a7.54,7.54,0,0,1,5.37,1.87,6.46,6.46,0,0,1,2,4.94,6.68,6.68,0,0,1-1.41,4.19,14,14,0,0,1-3,2.71l-1.67,1.19q-1.57,1.11-2.15,1.61a4.74,4.74,0,0,0-1,1.16h9.27v3.68H558.35A10,10,0,0,1,559.33,369.2Z" transform="translate(-11.61 -11.6)"/><path class="c" d="M588.05,354.84q1.63,2.86,1.63,8.12t-1.63,8.1q-1.63,2.84-5.69,2.84t-5.69-2.84Q575,368.21,575,363t1.63-8.12q1.63-2.86,5.69-2.86T588.05,354.84Zm-8.15,13.72a2.42,2.42,0,0,0,2.46,1.94,2.39,2.39,0,0,0,2.44-1.94,20.77,20.77,0,0,0,.58-5.6,20.54,20.54,0,0,0-.58-5.68,2.36,2.36,0,0,0-2.44-1.85,2.4,2.4,0,0,0-2.46,1.85,19.78,19.78,0,0,0-.6,5.68A20,20,0,0,0,579.9,368.56Z" transform="translate(-11.61 -11.6)"/><path class="c" d="M592.86,358.72v-2.84a18.38,18.38,0,0,0,2.76-.26,3.9,3.9,0,0,0,2-1.11,3.69,3.69,0,0,0,.82-1.52,3.53,3.53,0,0,0,.16-.85h3.49v21.24h-4.28V358.72Z" transform="translate(-11.61 -11.6)"/><path class="c" d="M623.29,355.68a26.38,26.38,0,0,0-2.61,3.29,27,27,0,0,0-4.42,9.72,20,20,0,0,0-.72,4.69H611.2A25.51,25.51,0,0,1,615,361.49a28.13,28.13,0,0,1,3.86-5.33H608.23l.06-3.75h15Z" transform="translate(-11.61 -11.6)"/><g class="b"><line class="d" x1="545.1" y1="330.34" x2="614.72" y2="330.34"/><line class="e" x1="545.1" y1="330.34" x2="614.72" y2="330.34"/><line class="d" x1="614.72" y1="376" x2="545.1" y2="376"/><line class="e" x1="614.72" y1="376" x2="545.1" y2="376"/><line class="d" x1="89.66" y1="330.34" x2="159.28" y2="330.34"/><line class="e" x1="89.66" y1="330.34" x2="159.28" y2="330.34"/><line class="d" x1="159.28" y1="376" x2="89.66" y2="376"/><line class="e" x1="159.28" y1="376" x2="89.66" y2="376"/></g><path class="c" d="M127.55,256.07l6.57,2.44L130,269.61l30.54,11.32-2.89,7.81-30.54-11.32L123,288.57l-6.57-2.44Z" transform="translate(-11.61 -11.6)"/><path class="c" d="M166.64,265.9l-34.29-19.77,4.1-7.12,13.08,7.54,7.69-13.33-13.08-7.54,4.1-7.12,34.29,19.77-4.1,7.12-15.31-8.83L155.43,250l15.31,8.83Z" transform="translate(-11.61 -11.6)"/><path class="c" d="M180.73,189l-13.44,16.07,6.45,5.39,12.33-14.75,5.27,4.41L179,214.86l7.81,6.53,14.06-16.81,5.46,4.56-19.24,23-30.37-25.39,18.62-22.27Z" transform="translate(-11.61 -11.6)"/><path class="c" d="M220.57,146.69l9.71-6.88,22.88,32.31-6.29,4.45-15.47-21.85q-.67-.94-1.85-2.66t-1.83-2.63l13.08,31.45-6.56,4.65-25.28-22.81q.65.92,1.88,2.6t1.89,2.63l15.47,21.85-6.29,4.45L199,161.94l9.82-7,23.87,21.24Z" transform="translate(-11.61 -11.6)"/><path class="c" d="M253.53,128.22l8.54-3.83,29,30.38-8.18,3.67-5.71-6.35-13.3,6,.88,8.52-7.89,3.54Zm9.58,22.69,9.25-4.15-10.94-12.16Z" transform="translate(-11.61 -11.6)"/><path class="c" d="M286.23,115.07l7.91-1.93L298,129l11-19.47L319.37,107l-11.92,19.67,22.12,18.59-10.33,2.52L303.3,133.86l-2.91,4.87,3.14,12.86-7.91,1.93Z" transform="translate(-11.61 -11.6)"/><path class="c" d="M360.81,110.7l-20.9,1.36.55,8.39,19.19-1.25.45,6.86-19.19,1.25.66,10.16L363.43,136l.46,7.1L334,145.09l-2.57-39.5,29-1.89Z" transform="translate(-11.61 -11.6)"/><path class="c" d="M399.19,107.62a9.79,9.79,0,0,1,3.39,3.15,12.33,12.33,0,0,1,1.62,3.52,11.12,11.12,0,0,1,.28,4.22,11.86,11.86,0,0,1-2,5.36,8,8,0,0,1-5.09,3.33,7.39,7.39,0,0,1,3.52,3.53,13,13,0,0,1,.47,6.28l-.28,2.64a19.9,19.9,0,0,0-.18,3.68,3.3,3.3,0,0,0,1.28,2.41l-.11,1-9.08-1q-.23-1.35-.31-2.17a19.35,19.35,0,0,1,0-3.43l.34-3.66q.35-3.77-.76-5.16t-4.55-1.76l-8-.86-1.66,15.43-8-.87,4.24-39.36,18.83,2A17.25,17.25,0,0,1,399.19,107.62Zm-17.62,4-1.14,10.57,8.85,1a9.47,9.47,0,0,0,4-.22q2.45-.87,2.81-4.18.39-3.58-1.74-5a8.2,8.2,0,0,0-3.73-1.1Z" transform="translate(-11.61 -11.6)"/><path class="c" d="M414.9,122.22a6,6,0,0,0,4.39-1.85,4.74,4.74,0,0,0,1-2.21l-4.34-1,1.64-6.87,7.68,1.83L424,117.6a9.4,9.4,0,0,1-3.46,5.74,9.71,9.71,0,0,1-6.27,1.62Z" transform="translate(-11.61 -11.6)"/><path class="c" d="M433.82,142.84a8,8,0,0,0,0,4.33q1.08,3,5.76,4.74a15.17,15.17,0,0,0,4.77,1.08q3.75.07,4.91-3.08a3.38,3.38,0,0,0-.57-3.45,18.81,18.81,0,0,0-4.51-3.65l-3.69-2.37q-5.44-3.51-7.08-5.86-2.8-4-.77-9.42a11.38,11.38,0,0,1,6.74-6.92q4.89-1.94,12,.7a17.64,17.64,0,0,1,9,6.87q3,4.66,1,10.66L454,133.7a5.67,5.67,0,0,0-1.23-5.87,11,11,0,0,0-4.28-2.64,9.38,9.38,0,0,0-5.35-.61,4.08,4.08,0,0,0-3.08,2.69,3.39,3.39,0,0,0,.71,3.64,23.93,23.93,0,0,0,4.36,3.36l5.94,4a17.68,17.68,0,0,1,5.42,5.08q2.35,3.85.51,8.81a11.36,11.36,0,0,1-7.07,7q-5.18,1.9-12.36-.76-7.33-2.72-10.3-7.59a11.68,11.68,0,0,1-.82-10.66Z" transform="translate(-11.61 -11.6)"/><path class="c" d="M509,165.5a7.75,7.75,0,0,0-.52-7.27,11.29,11.29,0,0,0-3.22-3.32,9.86,9.86,0,0,0-8.51-1.54q-4.58,1.2-8.72,7.13t-3.17,10.37a11,11,0,0,0,4.48,6.82,9.81,9.81,0,0,0,7,1.94,10.31,10.31,0,0,0,6.27-3.26L495,171.13l3.78-5.42,13.52,9.43-12.15,17.42-4.49-3.13,2.14-4.53a18.94,18.94,0,0,1-5.79.79,15.19,15.19,0,0,1-7.76-3,16.75,16.75,0,0,1-7.46-11.84q-1.16-7.49,4.27-15.28T494.26,146q7.66-1.73,14.79,3.25,6.19,4.32,7.76,10.08a14.24,14.24,0,0,1-1.16,10.83Z" transform="translate(-11.61 -11.6)"/><path class="c" d="M534,169.73l5.88,6-17.37,17a13.75,13.75,0,0,0-3.58,4.86q-1.33,3.4,2.19,7t6.93,2.32a13.75,13.75,0,0,0,4.93-3.48l17.37-17,5.88,6-17.38,17q-4.51,4.42-8.39,5.48-7.16,1.9-14.34-5.43T510.95,195q1.14-3.86,5.65-8.28Z" transform="translate(-11.61 -11.6)"/><path class="c" d="M537.05,232.67l-5-6.55,31.54-23.92,5,6.55Z" transform="translate(-11.61 -11.6)"/><path class="c" d="M575.8,218.64l4.22,7.11-27.92,16.58,10.09,17L556.09,263l-14.32-24.11Z" transform="translate(-11.61 -11.6)"/><path class="c" d="M602.8,275.34a13.08,13.08,0,0,1-2.26,8.1,17.62,17.62,0,0,1-4.95,4.93,30.62,30.62,0,0,1-5.84,3.06,26.3,26.3,0,0,1-13.62,1.85q-8.44-1.36-11.67-9.73l-6.14-15.92,36.94-14.24,6.14,15.92A20.9,20.9,0,0,1,602.8,275.34Zm-11.07-12-24.11,9.29,2.75,7.13q2.11,5.47,8.33,5.55a20.32,20.32,0,0,0,7.5-1.54q5.64-2.17,8-5.11t.31-8.2Z" transform="translate(-11.61 -11.6)"/><path class="c" d="M152,431.52a11.85,11.85,0,0,1,6.5,7q2.59,6.71-.66,11.52a10.4,10.4,0,0,1-4.3,3.77l-2.16-5.61a8.2,8.2,0,0,0,2.38-2.5,6.53,6.53,0,0,0-4.26-8.9q-3.14-.78-7.66,1t-6.06,4.44a6.13,6.13,0,0,0-.46,5.51,5.63,5.63,0,0,0,3.63,3.66,9.09,9.09,0,0,0,3.65.19l2.15,5.58a13,13,0,0,1-8.57-.93,11.5,11.5,0,0,1-5.68-6.54q-2.21-5.73.24-10.45t9-7.23Q146.76,429.26,152,431.52Z" transform="translate(-11.61 -11.6)"/><path class="c" d="M173.68,472.63a7.11,7.11,0,0,1-.45,3.33,9,9,0,0,1-1.41,2.44,8.08,8.08,0,0,1-2.39,1.94,8.63,8.63,0,0,1-4,1.06,5.78,5.78,0,0,1-4.11-1.62,5.38,5.38,0,0,1-.61,3.57,9.47,9.47,0,0,1-3.53,2.92l-1.69.94a14.54,14.54,0,0,0-2.26,1.44,2.4,2.4,0,0,0-.89,1.77l-.63.35-3.23-5.8q.7-.71,1.16-1.09a14.33,14.33,0,0,1,2-1.43l2.32-1.34q2.39-1.37,2.75-2.62t-.87-3.44L153,469.93l-9.86,5.49-2.86-5.14,25.15-14,6.7,12A12.54,12.54,0,0,1,173.68,472.63Zm-9.77-8.79-6.76,3.76,3.15,5.66a6.91,6.91,0,0,0,1.82,2.3,3.24,3.24,0,0,0,3.66-.09q2.29-1.27,2.27-3.15a6,6,0,0,0-.91-2.68Z" transform="translate(-11.61 -11.6)"/><path class="c" d="M189.35,502.64l-9.13-12.2-4.89,3.66,8.38,11.2-4,3-8.38-11.2-5.93,4.44,9.55,12.76-4.14,3.1-13.07-17.47,23.05-17.25,12.65,16.91Z" transform="translate(-11.61 -11.6)"/><path class="c" d="M203.9,510.83l4.77,4.86-13.42,27.43-4.57-4.66,2.89-5.5-7.42-7.57-5.59,2.75-4.41-4.49Zm-13.06,12.26,5.16,5.26,5.54-10.53Z" transform="translate(-11.61 -11.6)"/><path class="c" d="M234.15,537.61l-3.2,4-6.7-5.41L209.37,554.6l-4.71-3.8,14.88-18.44-6.73-5.43,3.2-4Z" transform="translate(-11.61 -11.6)"/><path class="c" d="M227.51,567.65l-5-3.32,16-23.95,5,3.32Z" transform="translate(-11.61 -11.6)"/><path class="c" d="M264.74,555.95l5.51,3L248,579.63l-5-2.69,5-30,5.66,3-4.83,22.21Z" transform="translate(-11.61 -11.6)"/><path class="c" d="M293.28,573.23,279,567.83l-2.16,5.72,13.08,5-1.77,4.68-13.08-5-2.62,6.92,14.9,5.64-1.83,4.84-20.4-7.73L275.34,561l19.74,7.48Z" transform="translate(-11.61 -11.6)"/><path class="c" d="M333.74,576.9l8.55,1.33-4.41,28.45-5.54-.86,3-19.24q.13-.83.38-2.32t.38-2.3L327,605l-5.78-.9-1.65-24.71q-.13.81-.34,2.31t-.34,2.33l-3,19.24-5.54-.86L314.77,574l8.65,1.34,1.71,23.17Z" transform="translate(-11.61 -11.6)"/><path class="c" d="M357.67,578.63l6.81.11,9.72,29-6.52-.11-1.8-5.95-10.6-.17-2,5.89-6.29-.1Zm-.69,17.9,7.37.12-3.45-11.39Z" transform="translate(-11.61 -11.6)"/><path class="c" d="M379.79,578.19l5.87-.78,1.56,11.76L396.68,576l7.71-1-10.16,13.29,14.54,15.17-7.67,1-10.44-11.29-2.49,3.29,1.27,9.54-5.87.78Z" transform="translate(-11.61 -11.6)"/><path class="c" d="M422.22,600.12l-5.82,1.38-6.66-28,5.81-1.38Z" transform="translate(-11.61 -11.6)"/><path class="c" d="M423,570.37l6-2.07,17.39,15.2-6.6-19L445,562.7l9.46,27.19-5.68,2L431,576.43l6.72,19.29-5.29,1.84Z" transform="translate(-11.61 -11.6)"/><path class="c" d="M472.87,558.95a5.64,5.64,0,0,0-4.87-2.11,8.22,8.22,0,0,0-3.23,1,7.18,7.18,0,0,0-3.86,5q-.77,3.36,1.66,8t5.61,5.54a8,8,0,0,0,5.9-.59,7.15,7.15,0,0,0,3.6-3.83,7.5,7.5,0,0,0,0-5.14l-5.91,3.08-2.22-4.26L480.22,560l7.13,13.7-3.53,1.84-2.2-2.91a13.8,13.8,0,0,1-1.44,4,11,11,0,0,1-4.52,4,12.18,12.18,0,0,1-10.15.81q-5.22-1.77-8.41-7.9t-1.76-11.71a13.12,13.12,0,0,1,7.08-8.44,13.31,13.31,0,0,1,9.11-1.6,10.35,10.35,0,0,1,6.59,4.4Z" transform="translate(-11.61 -11.6)"/><path class="c" d="M507.46,549.2a5.85,5.85,0,0,0,2.71,1.6q2.28.44,5.1-1.85a11,11,0,0,0,2.45-2.59,3.35,3.35,0,0,0-.11-4.21,2.46,2.46,0,0,0-2.37-.92,13.68,13.68,0,0,0-4,1.47l-2.85,1.43a19.38,19.38,0,0,1-6.29,2.26q-3.52.28-6.18-3a8.27,8.27,0,0,1-1.83-6.79q.6-3.78,4.89-7.25a12.83,12.83,0,0,1,7.63-3.07,8.58,8.58,0,0,1,7.06,3.29l-4.49,3.64a4.12,4.12,0,0,0-4.13-1.41,7.94,7.94,0,0,0-3.24,1.7,6.81,6.81,0,0,0-2.37,3.12,3,3,0,0,0,.54,2.93,2.47,2.47,0,0,0,2.54.91,17.28,17.28,0,0,0,3.72-1.48l4.68-2.25a12.84,12.84,0,0,1,5.18-1.51,7,7,0,0,1,5.7,2.95,8.26,8.26,0,0,1,1.76,7q-.73,3.95-5.05,7.45T510,556.25a8.5,8.5,0,0,1-7-3.43Z" transform="translate(-11.61 -11.6)"/><path class="c" d="M538.37,515.47q-.21,3.28-3.45,6.68l-4.13,4.34,7.5,7.14L534.16,538,513.31,518.1l8.53-9a10,10,0,0,1,6.31-3.4q3.37-.3,6.75,2.92Q538.58,512.18,538.37,515.47Zm-10.68-3.83a4.84,4.84,0,0,0-2.9,1.66l-3.74,3.93,6.14,5.85,3.74-3.93a4.59,4.59,0,0,0,1.46-3A4.23,4.23,0,0,0,530.8,513,4,4,0,0,0,527.69,511.64Z" transform="translate(-11.61 -11.6)"/><path class="c" d="M535.62,492.87l4.07-5.46,29.17,9-3.9,5.23-5.88-2-6.33,8.5,3.58,5.1-3.76,5Zm14.13,11,4.4-5.91-11.26-3.85Z" transform="translate(-11.61 -11.6)"/><path class="c" d="M552.48,473.78a11.85,11.85,0,0,1,1.13-9.47q3.45-6.3,9.23-6.93a10.38,10.38,0,0,1,5.66.85l-2.89,5.28a8.21,8.21,0,0,0-3.45-.21,5.93,5.93,0,0,0-3.93,3.28,5.87,5.87,0,0,0-.11,5.72q1.43,2.9,5.68,5.23t7.3,1.77a6.14,6.14,0,0,0,4.51-3.21,5.64,5.64,0,0,0,.45-5.13,9.1,9.1,0,0,0-2.21-2.91l2.87-5.24a13,13,0,0,1,4.82,7.14,11.49,11.49,0,0,1-1.33,8.56q-3,5.39-8.13,6.56t-11.32-2.19Q554.14,479.25,552.48,473.78Z" transform="translate(-11.61 -11.6)"/><path class="c" d="M575,429.64l-5.45,14.23,5.71,2.19,5-13.06,4.67,1.79-5,13.06,6.91,2.65,5.7-14.88,4.83,1.85-7.8,20.37-26.88-10.3,7.55-19.72Z" transform="translate(-11.61 -11.6)"/><g class="b"><path class="f" d="M464.3,381.81c7.61,7.61,6.87,20.69-1.65,29.22l-20.4,20.4c-8.52,8.53-21.6,9.27-29.22,1.65s-6.87-20.69,1.66-29.22l20.4-20.4c8.53-8.52,21.61-9.27,29.22-1.65" transform="translate(-11.61 -11.6)"/><path class="f" d="M434.73,350.39c7.61,7.61,6.87,20.69-1.65,29.22L412.68,400c-8.52,8.53-21.61,9.27-29.22,1.65s-6.87-20.69,1.65-29.22l20.4-20.4c8.52-8.53,21.61-9.27,29.22-1.66" transform="translate(-11.61 -11.6)"/><path class="f" d="M329.35,304.76l20.4-20.4c8.52-8.52,21.61-9.27,29.22-1.65s6.87,20.69-1.66,27.68L364,323.66s-22.64-15.1-25.3-16.34-9.4-2.55-9.4-2.55" transform="translate(-11.61 -11.6)"/><path class="f" d="M383.34,337.05l-13.86-11,9.38-9.24c8.41-8.29,21.32-9,28.84-1.61s6.78,20.12-1.63,28.4L390.9,358.51s1-4.58-1.1-11.51a21.08,21.08,0,0,0-6.47-9.95" transform="translate(-11.61 -11.6)"/><path class="c" d="M442.6,459.76l28.48,29.58c8.32,8.64,15.38,1.84,19.12-1.8l17-17c3.71-3.71,8.7-13.54,1.3-20.51l-39.19-37-28.61,28.3s3.5,2.81,4.24,9.27a12.11,12.11,0,0,1-2.39,9.18" transform="translate(-11.61 -11.6)"/><path class="f" d="M395.18,542.13A178.78,178.78,0,0,1,294.32,518l-.07,0,13.51-41.21c.41-2.11-.54-4.13-.81-6.21l-37.06-93.57s-2.27-4.94-1-14.17c.49-3.59,4.8-9.69,5.91-11.29S321,310.12,321,310.12c7.6-3.58,12.35-.89,16.74.81l42.93,29.16c5.58,6,8.14,15.26,4.62,22.86a26.27,26.27,0,0,1-5.4,7.25c-11.61,11.61-26,3.91-26,3.91l-24-15.66c-3.8,3.86-8.18,7.12-11.61,11.34a6.25,6.25,0,0,0-1.63,2.4,8.85,8.85,0,0,0-.32,2.92l27.33,51.38h5.4l-13-26.46s14.28-.15,31,13.32,25.42,32.58,25.42,32.58l4.32-1.89s-8.78-20.5-27.54-35.5c-13.8-11-36.45-13.37-36.45-13.37l-11.34-21.6,9.18-9.72c9.82,5.67,17.88,13.09,28.89,17.55,3.26,1.24,10.31.76,13.5-1.62,0,0-5,15.63,5.68,26.3s25.1,4.21,25.1,4.21-6.76,16,3.92,26.71,22.81,6.5,22.81,6.5c7.4,0,10.14,9.77,5.67,16.2,0,0-5.85,12.8-10.82,20.19s-17.53,21.93-17.53,21.93c-4.17,11.63-7.56,24.69-12.75,40.31" transform="translate(-11.61 -11.6)"/><path class="c" d="M205.63,364.18h3.51c5.54-28.33,32.33-80.75,63.62-69.24,4.7,3.23,13,2.7,18.27-1.21l21.15,17.39,25.15-23.88L316.42,268c6.86-7.59,7.45-14.76,5.6-21.56-3.6-13.13,9.28-20.47,18.7-28.31,6.69,4.11,12.4,2.78,18.21-2.33,6-6,6.27-14.85,1.83-20.19L342,176.92c-5.34-5.26-14.31-4.75-20.19,1.15-5.37,5.31-6.15,12.87-2.32,18.24A179.22,179.22,0,0,0,205.62,363.6v.58" transform="translate(-11.61 -11.6)"/></g></g></svg>