<svg xmlns="http://www.w3.org/2000/svg" xmlns:xlink="http://www.w3.org/1999/xlink" viewBox="0 0 778.36 424.88"><defs><style>.cls-1{fill:url(#linear-gradient);}.cls-2{fill:url(#linear-gradient-2);}.cls-3{fill:url(#linear-gradient-3);}</style><linearGradient id="linear-gradient" x1="-13.64" y1="154.82" x2="792.42" y2="154.82" gradientUnits="userSpaceOnUse"><stop offset="0" stop-color="#1297cb"/><stop offset="1" stop-color="#71c6ef"/></linearGradient><linearGradient id="linear-gradient-2" x1="-13.64" y1="385.29" x2="792.42" y2="385.29" xlink:href="#linear-gradient"/><linearGradient id="linear-gradient-3" x1="-13.64" y1="385.23" x2="792.42" y2="385.23" xlink:href="#linear-gradient"/></defs><title>colour-block_1</title><g id="Layer_2" data-name="Layer 2"><g id="Layer_1-2" data-name="Layer 1"><path class="cls-1" d="M393.69,0a180.62,180.62,0,0,0-44.23,5.51h0A154.6,154.6,0,0,0,293.18,32.1q-5.81,4.48-11.15,9.48c-32.73,30.8-50.22,71-50.22,114.33a150.68,150.68,0,0,0,61.38,121.45,161.25,161.25,0,0,0,56,26.76h0a169.88,169.88,0,0,0,42.63,5.51c86.53,0,156.49-68.78,156.49-154.08C548.38,66.56,482,0,393.69,0ZM520.8,157.39l-78,66.69a82.84,82.84,0,0,1-52.24,18.49c-47.54,0-84.75-38.41-84.75-87.54,0-50.46,36.33-88,85.19-88a81.57,81.57,0,0,1,48.33,15.38c2.94,2.13,66.56,56.84,81.48,69.66a3.53,3.53,0,0,1,0,5.37Z"/><path class="cls-2" d="M105,345.7c23.18,0,40.05,16.52,40.05,39.59s-16.87,39.6-40.05,39.6-39.94-16.53-39.94-39.6S81.93,345.7,105,345.7Zm0,14.46c-14.12,0-23.18,10.79-23.18,25.13s9.07,25.13,23.18,25.13,23.3-10.9,23.3-25.13S119.12,360.16,105,360.16Z"/><path class="cls-3" d="M178.49,396.31h-9a1.86,1.86,0,0,0-1.86,1.86v23.47a1.86,1.86,0,0,1-1.86,1.86H153.22a1.86,1.86,0,0,1-1.86-1.86V348.82a1.86,1.86,0,0,1,1.86-1.86h33.94c16,0,25.71,10.45,25.71,24.67,0,12.35-7.06,19.45-14.57,22.08a1.85,1.85,0,0,0-1,2.69l14.34,24.29a1.86,1.86,0,0,1-1.61,2.81H195.72a1.86,1.86,0,0,1-1.63-1l-14-25.27A1.86,1.86,0,0,0,178.49,396.31Zm6.27-35H169.52a1.86,1.86,0,0,0-1.86,1.86V380.1a1.86,1.86,0,0,0,1.86,1.86h15.24c6.54,0,11.48-3.9,11.48-10.33S191.29,361.31,184.75,361.31Z"/><path class="cls-3" d="M236.93,361.31H218.29a1.86,1.86,0,0,1-1.86-1.86V348.82a1.86,1.86,0,0,1,1.86-1.86h57.32a1.86,1.86,0,0,1,1.86,1.86v10.62a1.86,1.86,0,0,1-1.86,1.86H257.07a1.86,1.86,0,0,0-1.86,1.86v58.47a1.86,1.86,0,0,1-1.86,1.86H240.66a1.86,1.86,0,0,1-1.86-1.86V363.17A1.86,1.86,0,0,0,236.93,361.31Z"/><path class="cls-3" d="M288.67,347h45.2a1.67,1.67,0,0,1,1.67,1.67v2.62a1.67,1.67,0,0,1-1.67,1.67H295.21a1.67,1.67,0,0,0-1.67,1.67v25a1.67,1.67,0,0,0,1.67,1.67h37.85a1.67,1.67,0,0,1,1.67,1.67v2.62a1.67,1.67,0,0,1-1.67,1.67H295.21a1.67,1.67,0,0,0-1.67,1.67v32.92a1.67,1.67,0,0,1-1.67,1.67h-3.19a1.67,1.67,0,0,1-1.67-1.67v-73.2A1.67,1.67,0,0,1,288.67,347Z"/><path class="cls-2" d="M380.63,345.7c22.38,0,37.19,17.21,37.19,39.59s-14.81,39.6-37.19,39.6-37.18-17.22-37.18-39.6S358.14,345.7,380.63,345.7Zm0,6c-18.59,0-30.29,14.12-30.29,33.62,0,19.28,11.71,33.63,30.29,33.63,18.36,0,30.3-14.35,30.3-33.63C410.93,365.78,399,351.67,380.63,351.67Z"/><path class="cls-3" d="M449.12,391.83H434.74a1.67,1.67,0,0,0-1.67,1.67v28.33a1.67,1.67,0,0,1-1.67,1.67H428.2a1.67,1.67,0,0,1-1.67-1.67v-73.2A1.67,1.67,0,0,1,428.2,347h26.9c13.2,0,23.3,8.38,23.3,22.38,0,12.83-8.43,20.37-18.68,21.81a1.53,1.53,0,0,0-1.06,2.39l19,27.54a1.55,1.55,0,0,1-1.28,2.43h-4.14a1.55,1.55,0,0,1-1.29-.68L450.4,392.51A1.55,1.55,0,0,0,449.12,391.83Zm5.41-38.9H434.74a1.67,1.67,0,0,0-1.67,1.67v29.59a1.67,1.67,0,0,0,1.67,1.67h19.79c10.1,0,17-6.88,17-16.52S464.63,352.93,454.53,352.93Z"/><path class="cls-3" d="M530.61,363.11l-16.55,59.26a1.55,1.55,0,0,1-1.5,1.14h-5a1.55,1.55,0,0,1-1.49-1.13l-21-73.44a1.55,1.55,0,0,1,1.49-2h4.1a1.55,1.55,0,0,1,1.5,1.14l16.68,60.81a1.55,1.55,0,0,0,3,0l17-60.82a1.55,1.55,0,0,1,1.5-1.14h3.61a1.55,1.55,0,0,1,1.5,1.14l16.88,60.8a1.55,1.55,0,0,0,3,0L572,348.1a1.55,1.55,0,0,1,1.5-1.14h4.1a1.55,1.55,0,0,1,1.49,2l-20.92,73.44a1.55,1.55,0,0,1-1.49,1.13h-5a1.55,1.55,0,0,1-1.5-1.14L533.6,363.11A1.55,1.55,0,0,0,530.61,363.11Z"/><path class="cls-3" d="M625.38,404.69H587a1.55,1.55,0,0,0-1.44,1l-6.79,16.87a1.55,1.55,0,0,1-1.44,1h-4.21a1.55,1.55,0,0,1-1.44-2.14l30.06-73.44a1.55,1.55,0,0,1,1.44-1h6.06a1.55,1.55,0,0,1,1.44,1l30.06,73.44a1.55,1.55,0,0,1-1.44,2.14h-4.21a1.55,1.55,0,0,1-1.44-1l-6.79-16.87A1.55,1.55,0,0,0,625.38,404.69Zm-35-6h31.54a1.55,1.55,0,0,0,1.44-2.14l-15.82-39.05a1.55,1.55,0,0,0-2.88,0L589,396.58A1.55,1.55,0,0,0,590.4,398.72Z"/><path class="cls-3" d="M672.54,391.83H658a1.55,1.55,0,0,0-1.55,1.55V422a1.55,1.55,0,0,1-1.55,1.55H651.5a1.55,1.55,0,0,1-1.55-1.55V348.51A1.55,1.55,0,0,1,651.5,347h27c13.2,0,23.29,8.38,23.29,22.38,0,12.83-8.43,20.37-18.68,21.81a1.53,1.53,0,0,0-1.06,2.39l19,27.54a1.55,1.55,0,0,1-1.28,2.43h-4.14a1.55,1.55,0,0,1-1.29-.68l-20.54-30.31A1.55,1.55,0,0,0,672.54,391.83Zm5.41-38.9H658a1.55,1.55,0,0,0-1.55,1.55v29.83a1.55,1.55,0,0,0,1.55,1.55H678c10.1,0,17-6.88,17-16.52S688.05,352.93,678,352.93Z"/><path class="cls-3" d="M715.24,348.51A1.55,1.55,0,0,1,716.8,347h22.89c23.75,0,38.68,17.33,38.68,38.33,0,21.23-14.92,38.22-38.68,38.22H716.8a1.55,1.55,0,0,1-1.55-1.55Zm24.44,69c20.2,0,31.79-14.35,31.79-32.25S760,352.93,739.69,352.93H723.34a1.55,1.55,0,0,0-1.55,1.55V416a1.55,1.55,0,0,0,1.55,1.55Z"/><path class="cls-3" d="M0,348.82A1.86,1.86,0,0,1,1.86,347H35.81c16.64,0,25.71,11.25,25.71,24.67s-9.18,24.67-25.71,24.67H18.16a1.86,1.86,0,0,0-1.86,1.86v23.47a1.86,1.86,0,0,1-1.86,1.86H1.86A1.86,1.86,0,0,1,0,421.64Zm33.83,12.48H19.71c-2.51,0-3.42.91-3.42,2V380.1A1.86,1.86,0,0,0,18.16,382H33.62c6.16,0,10.84-3.69,11.22-9.55C45.24,366.3,39.95,361.31,33.83,361.31Z"/></g></g></svg>