<?xml version="1.0" encoding="UTF-8" standalone="no"?>
<svg width="386px" height="332px" viewBox="0 0 386 332" version="1.1" xmlns="http://www.w3.org/2000/svg" xmlns:xlink="http://www.w3.org/1999/xlink" xmlns:sketch="http://www.bohemiancoding.com/sketch/ns">
    <!-- Generator: Sketch 3.2.2 (9983) - http://www.bohemiancoding.com/sketch -->
    <title>Group + resin_text</title>
    <desc>Created with Sketch.</desc>
    <defs>
        <path id="path-1" d="M0.163098592,0.3276 L385.27693,0.3276 L385.27693,64.8414 L0.163098592,64.8414 L0.163098592,0.3276 Z"></path>
    </defs>
    <g id="Page-1" stroke="none" stroke-width="1" fill="none" fill-rule="evenodd" sketch:type="MSPage">
        <g id="Group-+-resin_text" sketch:type="MSLayerGroup">
            <g id="Group" transform="translate(88.000000, 0.000000)" sketch:type="MSShapeGroup">
                <g id="Shape">
                    <path d="M105.67438,0 L0,61 L105.67438,122 L211,61 L105.67438,0 Z" fill="#E0A800"></path>
                    <path d="M0,61 L0,183 L105.67438,244 L105.67438,122 L0,61 Z" fill="#FFEC52"></path>
                    <path d="M105.67438,244 L211,183 L211,61 L105.67438,122 L105.67438,244 Z" fill="#F7C30F"></path>
                </g>
                <g transform="translate(105.789471, 122.000000) rotate(180.000000) translate(-105.789471, -122.000000) translate(36.159471, 41.480000)" id="Shape">
                    <path d="M69.7450909,0 L0,40.26 L69.7450909,80.52 L139.26,40.26 L69.7450909,0 Z" fill="#E0A800"></path>
                    <path d="M0,40.26 L0,120.78 L69.7450909,161.04 L69.7450909,80.52 L0,40.26 Z" fill="#FFEC52"></path>
                    <path d="M69.7450909,161.04 L139.26,120.78 L139.26,40.26 L69.7450909,80.52 L69.7450909,161.04 Z" fill="#F7C30F"></path>
                </g>
                <g transform="translate(52.837190, 61.000000)" id="Shape">
                    <path d="M52.8371901,0 L0,30.5 L52.8371901,61 L105.5,30.5 L52.8371901,0 Z" fill="#E0A800"></path>
                    <path d="M0,30.5 L0,91.5 L52.8371901,122 L52.8371901,61 L0,30.5 Z" fill="#FFEC52"></path>
                    <path d="M52.8371901,122 L105.5,91.5 L105.5,30.5 L52.8371901,61 L52.8371901,122 Z" fill="#F7C30F"></path>
                </g>
            </g>
            <g id="resin_text" transform="translate(0.000000, 267.000000)">
                <mask id="mask-2" sketch:name="Clip 2" fill="white">
                    <use xlink:href="#path-1"></use>
                </mask>
                <g id="Clip-2"></g>
                <path d="M351.004479,51.3968 C340.514521,51.3968 332.239986,43.0352 332.239986,32.4402 C332.239986,22.295 340.748296,13.9308 350.89031,13.9308 C361.26338,13.9308 369.657521,22.4042 369.657521,32.6664 C369.657521,43.0352 361.26338,51.3968 351.004479,51.3968 L351.004479,51.3968 Z M350.770704,0.3276 C332.006211,0.3276 316.612423,14.9344 316.612423,32.6664 C316.612423,50.505 332.006211,65 350.89031,65 C369.657521,65 385.27693,50.505 385.27693,33.1084 C385.27693,14.7134 370.241958,0.3276 350.770704,0.3276 L350.770704,0.3276 Z M291.435437,63.5518 L306.940676,63.5518 L306.940676,1.7758 L291.435437,1.7758 L291.435437,63.5518 Z M260.895225,63.5518 L276.397746,63.5518 L276.397746,49.2778 L260.895225,49.2778 L260.895225,63.5518 Z M221.376437,0.3276 C214.031563,0.3276 208.902113,2.4466 203.190944,7.6856 L203.190944,1.7784 L188.851859,1.7784 L188.851859,63.5518 L204.357099,63.5518 L204.357099,34.45 C204.357099,26.1976 204.938817,22.6278 206.920465,19.6196 C209.366944,15.9406 213.447127,13.9308 218.342803,13.9308 C226.038338,13.9308 230.702958,16.8324 230.702958,33.332 L230.702958,63.5518 L246.202761,63.5518 L246.202761,30.433 C246.202761,19.396 245.042042,14.0426 241.543577,9.2482 C237.346507,3.4502 230.352296,0.3276 221.376437,0.3276 L221.376437,0.3276 Z M160.875014,63.5518 L176.377535,63.5518 L176.377535,1.7758 L160.875014,1.7758 L160.875014,63.5518 Z M134.292662,25.8622 C123.685817,22.6278 123.337873,22.4042 123.337873,19.1698 C123.337873,16.1616 125.901239,13.9308 129.285535,13.9308 C132.547507,13.9308 134.646042,15.6052 135.347366,18.837 L150.501944,18.837 C149.917507,7.241 140.240324,0.3276 129.285535,0.3276 C117.276042,0.3276 107.832634,8.5774 107.832634,19.1698 C107.832634,28.2048 112.962085,33.332 125.78707,37.4582 C136.160141,40.8044 136.744577,41.8054 136.744577,45.3778 C136.744577,48.828 133.713662,51.3968 129.747648,51.3968 C125.205352,51.3968 122.639268,49.1686 121.122451,43.927 L105.503042,43.927 C107.134028,58.3128 116.343662,65 129.168648,65 C142.107803,65 152.249817,55.7466 152.249817,43.927 C152.249817,34.7802 147.818972,29.874 134.292662,25.8622 L134.292662,25.8622 Z M48.4973662,26.1976 C50.9465634,18.278 57.2394507,13.9308 66.4490845,13.9308 C76.0093803,13.9308 82.3022676,18.278 84.2839155,26.1976 L48.4973662,26.1976 L48.4973662,26.1976 Z M66.2153099,0.3276 C47.2143239,0.3276 32.1739155,14.7134 32.1739155,32.8848 C32.1739155,50.947 47.4453803,65 67.1504085,65 C80.2037324,65 93.6104366,57.9748 97.9216761,45.2608 L81.0192254,45.2608 C77.0586479,49.725 73.2095211,51.3968 66.7970282,51.3968 C57.592831,51.3968 50.8269577,46.7116 48.9621972,39.2444 L98.9763803,39.2444 C99.4412113,37.1228 99.5580986,35.7864 99.5580986,33.5556 C99.5580986,14.378 85.4527887,0.3276 66.2153099,0.3276 L66.2153099,0.3276 Z M14.2221972,7.7974 L14.2221972,1.7784 L0,1.7784 L0,63.5518 L15.5052394,63.5518 L15.5052394,29.2058 C15.5052394,19.6196 20.0502535,14.8226 29.379493,14.6016 L29.379493,0.3276 L28.2106197,0.3276 C21.5670704,0.3276 18.3023803,2.1112 14.2221972,7.7974 L14.2221972,7.7974 Z" id="Fill-1" fill="#FFFFFF" sketch:type="MSShapeGroup" mask="url(#mask-2)"></path>
            </g>
        </g>
    </g>
</svg>